<?xml version="1.0" standalone="no"?>
<!DOCTYPE svg PUBLIC "-//W3C//DTD SVG 20010904//EN"
 "http://www.w3.org/TR/2001/REC-SVG-20010904/DTD/svg10.dtd">
<svg version="1.0" xmlns="http://www.w3.org/2000/svg"
 width="512.000000pt" height="512.000000pt" viewBox="0 0 512.000000 512.000000"
 preserveAspectRatio="xMidYMid meet">
<metadata>
Created by potrace 1.14, written by Peter Selinger 2001-2017
</metadata>
<g transform="translate(0.000000,512.000000) scale(0.100000,-0.100000)"
fill="#000000" stroke="none">
<path d="M0 2560 l0 -2560 2560 0 2560 0 0 2560 0 2560 -2560 0 -2560 0 0
-2560z m4231 1674 l206 -226 -45 -42 c-67 -62 -130 -153 -155 -226 -22 -65
-22 -65 -27 -1135 -5 -956 -7 -1076 -22 -1126 -31 -104 -69 -194 -130 -309
-33 -63 -76 -144 -95 -180 -46 -87 -43 -137 14 -218 44 -63 202 -201 336 -293
l88 -61 -24 -31 c-13 -18 -36 -49 -51 -69 l-27 -37 -72 44 c-240 147 -507 355
-698 545 -166 165 -203 223 -202 314 0 44 13 75 92 228 169 329 181 375 181
693 l0 223 -37 7 c-59 9 -213 -12 -310 -44 -231 -76 -531 -250 -768 -447 -314
-260 -495 -475 -495 -589 0 -126 227 -389 619 -715 82 -69 150 -129 150 -133
2 -15 -112 -142 -125 -141 -17 2 -188 136 -373 292 -467 395 -902 861 -1155
1237 -68 101 -142 257 -166 349 -57 224 6 486 149 619 126 116 287 158 405
104 73 -34 137 -76 276 -186 63 -50 130 -98 148 -107 30 -14 35 -14 64 3 17
10 40 35 51 57 45 87 49 128 57 611 6 386 10 470 24 519 23 83 50 140 92 197
l36 49 -124 0 c-179 0 -277 -31 -423 -135 -61 -43 -235 -218 -235 -236 0 -5
-33 -9 -73 -9 l-74 0 -279 303 c-154 166 -296 320 -316 342 l-36 40 30 73 31
72 1641 0 1641 0 206 -226z"/>
<path d="M2858 3941 c-35 -38 -78 -98 -96 -133 -61 -121 -62 -135 -62 -650 0
-257 2 -468 5 -468 2 0 28 9 57 21 231 92 457 114 711 70 66 -12 121 -21 123
-21 2 0 4 172 4 383 0 210 5 432 10 493 13 145 51 257 115 332 14 16 25 33 25
36 0 3 -186 6 -414 6 l-414 0 -64 -69z"/>
</g>
</svg>
